<!-- icon666.com - MILLIONS vector ICONS FREE --><svg version="1.1" id="Capa_1" xmlns="http://www.w3.org/2000/svg" xmlns:xlink="http://www.w3.org/1999/xlink" x="0px" y="0px" viewBox="0 0 447.894 447.894" style="enable-background:new 0 0 447.894 447.894;" xml:space="preserve"><g><path fill="#6CB71D" d="M296.165,67.843c-19.859,0-38.821,4.66-56.223,13.104c3.298-12.135,9.126-25.153,19.594-34.513 c13.424-11.984,32.729-16.086,57.399-12.2l3.7-23.418c-32.119-5.092-58.02,0.993-77.011,18.043 c-17.55,15.755-25.366,37.755-28.848,55.646c-19.21-10.684-40.557-16.668-63.056-16.668C67.93,67.843,0,126.7,0,228.56 c0,101.854,67.936,208.135,151.727,208.135c26.143,0,50.747,7.768,72.22-6.389c21.475,14.156,46.081,6.389,72.218,6.389 c83.791,0,151.729-106.281,151.729-208.135C447.894,126.7,379.956,67.843,296.165,67.843z M76.843,152.03 c-12.708,16.704-28.877,25.789-36.121,20.277c-7.237-5.503-2.795-23.504,9.91-40.229c12.708-16.709,28.877-25.794,36.115-20.286 C93.99,117.298,89.554,135.305,76.843,152.03z M409.687,257.783c-6.549,0-11.845-5.314-11.845-11.857 c0-71.913-48.457-130.418-108.025-130.418c-6.549,0-11.857-5.313-11.857-11.857c0-6.549,5.309-11.857,11.857-11.857 c72.638,0,131.739,69.144,131.739,154.132C421.544,252.468,416.248,257.783,409.687,257.783z"></path></g></svg>