<!-- icon666.com - MILLIONS vector ICONS FREE --><svg viewBox="-30 0 512 512" xmlns="http://www.w3.org/2000/svg"><path fill="#6CB71D" d="m335.8125 357.589844c-9-3.0625-17.585938-7.273438-25.535156-12.535156-13 9.199218-27.464844 16.179687-42.730469 20.707031-2.84375 9.660156-4.800781 20.617187-4.800781 32.515625 0 8.285156-6.714844 15-15 15s-15-6.714844-15-15c0-9.476563.972656-18.433594 2.566406-26.796875-3 .191406-6.007812.308593-9.03125.308593-3.019531 0-6.03125-.117187-9.03125-.308593 1.59375 8.363281 2.566406 17.320312 2.566406 26.796875 0 8.285156-6.714844 15-15 15-8.28125 0-15-6.714844-15-15 0-11.898438-1.957031-22.855469-4.800781-32.515625-15.265625-4.527344-29.730469-11.503907-42.726563-20.707031-7.949218 5.265624-16.535156 9.472656-25.539062 12.539062 17.035156 24.175781 28.433594 51.320312 33.992188 81.09375 6.035156 32.296875 2.570312 55.769531 2.539062 55.960938-.6875 4.335937.558594 8.753906 3.40625 12.089843 2.851562 3.339844 7.019531 5.261719 11.410156 5.261719h116.371094c4.375 0 8.527344-1.929688 11.378906-5.25 2.847656-3.316406 4.101563-7.734375 3.441406-12.0625-.035156-.230469-3.5-23.703125 2.53125-56 5.5625-29.773438 16.957032-56.917969 33.992188-81.097656zm0 0"></path><path fill="#6CB71D" d="m419.042969 186.824219c1.96875-7.660157 2.964843-15.542969 2.964843-23.550781 0-52.210938-42.480468-94.6875-94.691406-94.6875-3.289062 0-6.578125.171874-9.847656.515624-4.757812-16.988281-14.21875-32.402343-27.488281-44.472656-17.457031-15.882812-40.082031-24.628906-63.699219-24.628906s-46.238281 8.746094-63.699219 24.628906c-13.265625 12.070313-22.726562 27.484375-27.484375 44.46875-3.273437-.339844-6.558594-.515625-9.851562-.515625-52.210938 0-94.6875 42.480469-94.6875 94.691407 0 8.007812.992187 15.886718 2.960937 23.546874-20.945312 15.089844-33.519531 39.242188-33.519531 65.65625 0 44.679688 36.351562 81.027344 81.027344 81.027344 23.851562 0 46.117187-10.535156 61.28125-28.042968 21.535156 23.054687 51.617187 36.328124 83.972656 36.328124s62.441406-13.273437 83.976562-36.328124c15.164063 17.507812 37.429688 28.042968 61.277344 28.042968 44.679688 0 81.027344-36.347656 81.027344-81.027344 0-26.414062-12.574219-50.566406-33.519531-65.652343zm0 0"></path></svg>