<!-- icon666.com - MILLIONS vector ICONS FREE --><svg id="Layer_1" enable-background="new 0 0 128 128" viewBox="0 0 128 128" xmlns="http://www.w3.org/2000/svg"><g><path d="m95.2 65-54.6 8c-1.6.2-2.8 1.8-2.5 3.4.2 1.5 1.5 2.6 3 2.6h.4l54.6-8c9.4-1.4 16.8-8.2 19-17.4l6.9-28.8c.2-.9 0-1.8-.6-2.6-.6-.7-1.4-1.1-2.4-1.1h-97.5c-2.7-12.4-10.2-19.1-10.5-19.4-1.3-1-3.2-.9-4.2.3-1.1 1.3-1 3.2.2 4.2.1.1 7.2 6.5 9 18.2l8.7 57.5c1 6.4 6.4 11.1 12.9 11.1h59.4c1.7 0 3-1.3 3-3s-1.3-3-3-3h-59.4c-3.5 0-6.4-2.5-6.9-6l-8.2-54h92.7l-6 25.1c-1.6 6.8-7.1 11.9-14 12.9z"></path><path d="m31 114c0 7.2 5.8 13 13 13s13-5.8 13-13-5.8-13-13-13-13 5.8-13 13zm20 0c0 3.9-3.1 7-7 7s-7-3.1-7-7 3.1-7 7-7 7 3.1 7 7z"></path><path d="m87 101c-7.2 0-13 5.8-13 13s5.8 13 13 13 13-5.8 13-13-5.8-13-13-13zm0 20c-3.9 0-7-3.1-7-7s3.1-7 7-7 7 3.1 7 7-3.1 7-7 7z"></path></g></svg>