<!-- icon666.com - MILLIONS vector ICONS FREE --><svg xmlns="http://www.w3.org/2000/svg" viewBox="0 0 64 64"><g id="Layer_2" data-name="Layer 2"><path fill="#333" d="M39,46a11,11,0,0,0-8.63-10.74l.37-1.87a2,2,0,0,0-2-2.39H27.22a2,2,0,0,0-2,2.39l.37,1.87A11,11,0,0,0,17,46v1H15v2H41V47H39ZM27.22,33h1.56l-.4,2L28,35l-.38,0ZM19,47V46a9,9,0,0,1,18,0v1Z"></path><path fill="#333" d="M51.33,10.76A4,4,0,0,0,50,3H17a4,4,0,0,0-1.33,7.76l-4.61,12.9A1,1,0,0,0,11,24V60a1,1,0,0,0,1,1H45a1,1,0,0,0,.33-.06h0L50,59.08l4.63,1.85A1,1,0,0,0,56,60V24a1,1,0,0,0-.06-.34ZM52,7a2,2,0,1,1-2-2A2,2,0,0,1,52,7ZM15,7a2,2,0,0,1,2-2H46.54A4.15,4.15,0,0,0,46,7a4.13,4.13,0,0,0,.54,2H17A2,2,0,0,1,15,7ZM13,24.17,17.71,11H48.58L44.06,23.66A1,1,0,0,0,44,24V59H13ZM54,58.52l-3.63-1.45a1,1,0,0,0-.74,0L46,58.52V24.17L50,13l4,11.2Z"></path></g></svg>