<!-- icon666.com - MILLIONS vector ICONS FREE --><svg version="1.1" id="Capa_1" xmlns="http://www.w3.org/2000/svg" xmlns:xlink="http://www.w3.org/1999/xlink" x="0px" y="0px" viewBox="0 0 409.6 409.6" style="enable-background:new 0 0 409.6 409.6;" xml:space="preserve"><g><g><path d="M204.8,136.535C204.8,61.133,170.383,0,128,0C85.601,0,51.2,61.133,51.2,136.535c0,32.814,20.685,60.616,49.633,71.598 l-6.968,167.332c0,18.852,15.283,34.135,34.135,34.135c18.852,0,34.135-15.283,34.135-34.135l-6.968-167.317 C184.136,197.151,204.8,169.349,204.8,136.535z" fill="#6CB71D"></path></g></g><g><g><path fill="#6CB71D" d="M358.4,199.101C358.4,89.201,304.916,0,238.935,0v375.465c0,18.852,15.263,34.135,34.13,34.135 c18.836,0,34.135-15.283,34.135-34.135l-7.117-85.33H358.4V199.101z" ></path></g></g></svg>